<?xml version="1.0" standalone="no"?>
<!DOCTYPE svg PUBLIC "-//W3C//DTD SVG 20010904//EN"
 "http://www.w3.org/TR/2001/REC-SVG-20010904/DTD/svg10.dtd">
<svg version="1.0" xmlns="http://www.w3.org/2000/svg"
 width="512.000000pt" height="512.000000pt" viewBox="0 0 512.000000 512.000000"
 preserveAspectRatio="xMidYMid meet">
<metadata>
Created by potrace 1.14, written by Peter Selinger 2001-2017
</metadata>
<g transform="translate(0.000000,512.000000) scale(0.100000,-0.100000)"
fill="#000000" stroke="none">
<path d="M2644 3627 c-107 -35 -181 -105 -207 -196 -19 -70 -12 -162 16 -217
51 -100 137 -147 307 -169 114 -15 169 -39 171 -75 1 -11 2 -26 3 -32 4 -24
-16 -50 -49 -64 -82 -34 -202 -2 -232 61 l-16 33 -103 0 -104 0 0 -62 c0 -51
5 -70 29 -108 61 -96 152 -138 311 -145 78 -4 121 -1 169 12 166 43 260 165
249 320 -12 157 -127 252 -338 280 -84 11 -102 16 -131 31 -31 15 -45 50 -34
84 26 82 211 72 252 -14 l17 -36 103 0 103 0 0 55 c0 126 -78 211 -229 250
-81 21 -210 17 -287 -8z"/>
<path d="M208 3616 c-2 -6 -3 -220 -3 -476 l1 -465 127 -3 c97 -2 127 0 128
10 1 7 3 87 4 178 1 91 3 171 4 177 1 9 43 13 158 15 l156 3 -1 68 c0 37 -1
80 -1 97 l-1 29 -157 3 -158 3 0 73 0 72 30 1 c16 0 96 1 178 1 l147 0 1 31
c2 82 -1 181 -7 186 -11 11 -603 8 -606 -3z"/>
<path d="M939 3626 c-1 -1 -3 -216 -4 -478 l-1 -478 318 0 318 0 0 110 c0 107
-1 110 -22 111 -13 0 -98 0 -189 0 l-165 0 0 82 1 82 162 3 162 2 3 33 c2 17
2 62 0 100 l-4 67 -162 0 -162 0 -1 70 c0 68 1 70 26 71 14 0 99 1 189 1 l162
1 0 112 0 112 -315 0 c-173 0 -316 -1 -316 -1z"/>
<path d="M1721 3148 l-1 -478 313 0 312 0 1 110 1 110 -31 1 c-17 0 -100 0
-183 0 l-153 0 0 368 0 368 -129 -1 -130 -1 0 -477z"/>
<path d="M3326 3621 c-1 -4 -2 -217 -2 -476 l1 -470 318 -3 317 -2 1 57 c1 78
-2 157 -6 162 -2 2 -86 4 -187 5 l-183 1 0 80 0 80 163 3 162 2 1 50 c0 28 1
66 1 85 0 19 -1 42 -1 50 -1 12 -29 15 -163 17 l-163 3 0 63 c-1 35 3 66 9 69
5 4 88 6 183 5 204 -1 190 -11 185 131 l-3 94 -315 -1 c-174 0 -316 -2 -318
-5z"/>
<path d="M4115 3621 c-2 -3 -3 -219 -3 -479 l0 -472 123 0 123 0 -2 254 c0
140 2 252 6 250 4 -3 84 -117 179 -254 l173 -250 123 0 123 0 0 478 0 478
-112 -1 c-62 -1 -118 -2 -124 -3 -7 -1 -10 -80 -10 -242 1 -133 -1 -247 -4
-254 -3 -7 -83 102 -178 244 l-173 256 -120 0 c-66 0 -122 -2 -124 -5z"/>
<path d="M504 2455 c-135 -41 -233 -122 -289 -240 -43 -89 -56 -163 -51 -284
11 -238 136 -396 353 -445 171 -38 362 -4 474 85 l39 31 0 214 c0 118 -3 214
-7 215 -32 4 -367 3 -372 -1 -4 -3 -7 -47 -7 -97 1 -76 4 -93 16 -94 8 -1 42
-1 75 -1 l60 0 -2 -42 c-1 -22 -2 -51 -2 -63 -1 -17 -10 -24 -43 -31 -139 -30
-258 24 -305 136 -37 88 -25 234 27 315 70 110 241 129 325 36 l35 -39 100 -2
100 -3 0 56 c0 168 -146 269 -383 267 -56 -1 -120 -7 -143 -13z"/>
<path d="M1190 1971 l0 -481 130 0 130 0 0 153 0 154 28 -3 c15 -1 29 -2 33
-3 3 -1 50 -68 104 -150 l99 -149 117 -1 c129 -1 127 -2 124 64 -1 33 -16 61
-88 162 -48 67 -91 124 -96 127 -5 3 19 34 53 69 73 73 99 133 95 224 -4 107
-47 186 -128 242 -85 57 -149 69 -389 70 l-212 2 0 -480z m407 247 c15 -7 36
-22 45 -33 35 -41 14 -140 -35 -166 -12 -7 -54 -14 -93 -16 l-70 -3 -1 115 -1
115 64 0 c34 0 76 -6 91 -12z"/>
<path d="M2058 2438 c-2 -7 -4 -157 -3 -333 1 -278 3 -327 19 -376 54 -168
223 -270 426 -256 168 11 303 119 344 275 10 35 13 142 13 375 l0 327 -124 0
-123 0 0 -329 c0 -324 0 -328 -23 -362 -46 -70 -148 -88 -215 -39 -54 40 -56
49 -58 395 -1 176 -3 323 -3 328 -1 4 -57 7 -125 7 -90 0 -125 -3 -128 -12z"/>
<path d="M3024 1970 l0 -479 123 1 123 1 2 255 3 255 32 -49 c18 -27 97 -141
175 -254 l143 -205 123 -1 122 -2 1 29 c0 16 0 227 0 469 0 242 0 445 0 450
-1 6 -48 10 -120 10 -105 0 -119 -2 -123 -17 -2 -10 -3 -127 -3 -260 0 -134 0
-243 -1 -243 -3 0 -93 132 -109 158 -5 10 -63 95 -128 190 l-118 172 -122 0
-122 0 -1 -480z"/>
<path d="M4049 2388 c-1 -76 -1 -868 0 -886 1 -18 447 -10 505 9 43 15 43 14
168 231 35 60 41 65 92 81 61 19 61 21 65 133 7 238 -126 422 -344 478 -44 11
-117 15 -272 16 l-213 1 -1 -63z m432 -176 c76 -30 130 -125 130 -232 1 -107
-31 -180 -99 -231 -35 -25 -50 -30 -121 -33 -55 -2 -81 0 -82 8 -1 6 -2 119
-3 251 -1 205 1 241 14 246 22 9 130 2 161 -9z"/>
<path d="M4778 1700 c-17 -30 -40 -71 -51 -90 -10 -19 -30 -54 -44 -77 l-25
-43 152 0 151 0 -3 133 -3 132 -73 0 -73 1 -31 -56z"/>
</g>
</svg>
